<svg id="Group_3866" data-name="Group 3866" xmlns="http://www.w3.org/2000/svg" width="100.549" height="75.925" viewBox="0 0 100.549 75.925">
  <path id="Path_313" data-name="Path 313" d="M455.46,316.329h43.106v-.035a3.83,3.83,0,0,1,0,7.659H486.685a3.831,3.831,0,0,0-3.319,3.8,3.887,3.887,0,0,0,.059.672,3.833,3.833,0,0,0,3.772,3.158h7.686a3.841,3.841,0,0,1,.447-.027v0a3.83,3.83,0,0,1,0,7.659v0H473.984v-.034a3.829,3.829,0,1,0,0,7.659h19.465a3.794,3.794,0,0,1,.445-.028v0a3.83,3.83,0,1,1,0,7.659v0h-2.618l-.637,0a3.863,3.863,0,0,0-3.145,3.158h0a4.035,4.035,0,0,0-.047.61,3.829,3.829,0,0,0,3.829,3.828v.017a3.83,3.83,0,1,1,0,7.66V369.7H453.991V316.329Zm52.343,7.622a3.829,3.829,0,1,0,0,7.658v0a3.618,3.618,0,0,0,.448-.026h8.789v0a3.829,3.829,0,1,0,0-7.659v0a4.109,4.109,0,0,0-.444.025H507.8v0Zm-5.885,30.683a3.829,3.829,0,1,0,3.828,3.828,3.831,3.831,0,0,0-3.828-3.828Zm5.61-15.853a3.829,3.829,0,1,1-3.83,3.83,3.83,3.83,0,0,1,3.83-3.83Zm-16.252,23.3h-.158c.054.006.105.013.158.021Z" transform="translate(-420.321 -293.807)" fill="#fff" fill-rule="evenodd"/>
  <path id="Path_314" data-name="Path 314" d="M309.84,316.294h36.322a2.177,2.177,0,0,1,2.088,1.519l6.966,50.087a2.139,2.139,0,0,1-2.115,1.832h-48.7a2.139,2.139,0,0,1-2.138-2.1l5.7-51.334-.169,1.517A2.14,2.14,0,0,1,309.84,316.294Z" transform="translate(-302.268 -293.807)" fill="#fff" fill-rule="evenodd"/>
  <path id="Path_315" data-name="Path 315" d="M368.729,214.962c4.019,0,7.615,2.594,10.184,6.788a29.618,29.618,0,0,1,3.932,13.562h-2.132a27.382,27.382,0,0,0-3.621-12.451c-2.18-3.56-5.139-5.762-8.364-5.762s-6.185,2.2-8.364,5.762a27.377,27.377,0,0,0-3.621,12.451H354.61a29.594,29.594,0,0,1,3.933-13.562C361.112,217.556,364.709,214.962,368.729,214.962Z" transform="translate(-342.994 -214.962)" fill="#fff"/>
  <path id="Path_316" data-name="Path 316" d="M355.377,325.935A1.068,1.068,0,1,1,354.308,327a1.068,1.068,0,0,1,1.068-1.068Zm26.234,0A1.068,1.068,0,1,1,380.541,327,1.069,1.069,0,0,1,381.611,325.935Z" transform="translate(-342.76 -301.308)" fill="#fff" fill-rule="evenodd"/>
</svg>
