<svg id="calendar" xmlns="http://www.w3.org/2000/svg" width="25.93" height="27.063" viewBox="0 0 25.93 27.063">
  <path id="Path_4557" data-name="Path 4557" d="M161.9,244.8a4.654,4.654,0,1,0-4.654-4.654A4.659,4.659,0,0,0,161.9,244.8Zm-2.742-5.386a.783.783,0,0,1,1.108,0l1.023,1.023,2.244-2.244a.784.784,0,0,1,1.108,1.108l-2.8,2.8a.784.784,0,0,1-1.108,0l-1.577-1.577A.784.784,0,0,1,159.158,239.417Zm0,0" transform="translate(-148.935 -223.049)" fill="#fff"/>
  <path id="Path_4558" data-name="Path 4558" d="M0,180.552a2.537,2.537,0,0,0,2.534,2.534H23.4a2.537,2.537,0,0,0,2.534-2.534V164.731H0ZM12.965,166.9a6.221,6.221,0,1,1-6.221,6.221A6.228,6.228,0,0,1,12.965,166.9Zm0,0" transform="translate(0 -156.024)" fill="#fff"/>
  <path id="Path_4559" data-name="Path 4559" d="M25.934,46.4V43.987A2.537,2.537,0,0,0,23.4,41.453H21.971v1.408a.784.784,0,0,1-1.567,0V41.453h-1.54v1.408a.784.784,0,0,1-1.567,0V41.453H8.642v1.408a.784.784,0,0,1-1.567,0V41.453H5.535v1.408a.784.784,0,0,1-1.567,0V41.453H2.538A2.537,2.537,0,0,0,0,43.987V46.4Zm0,0" transform="translate(-0.004 -39.262)" fill="#fff"/>
  <path id="Path_4560" data-name="Path 4560" d="M387.509.784a.784.784,0,0,0-1.567,0V2.191h1.567Zm0,0" transform="translate(-365.542)" fill="#fff"/>
  <path id="Path_4561" data-name="Path 4561" d="M328.716.784a.784.784,0,0,0-1.567,0V2.191h1.567Zm0,0" transform="translate(-309.857)" fill="#fff"/>
  <path id="Path_4562" data-name="Path 4562" d="M135.353.784a.784.784,0,0,0-1.567,0V2.191h1.567Zm0,0" transform="translate(-126.714)" fill="#fff"/>
  <path id="Path_4563" data-name="Path 4563" d="M76.563.784A.784.784,0,0,0,75,.784V2.191h1.567Zm0,0" transform="translate(-71.032)" fill="#fff"/>
</svg>
