<svg id="Group_3864" data-name="Group 3864" xmlns="http://www.w3.org/2000/svg" width="344.549" height="260.171" viewBox="0 0 344.549 260.171">
  <path id="Path_313" data-name="Path 313" d="M459.026,316.413H606.736v-.119a13.123,13.123,0,0,1,0,26.246H566.024a13.127,13.127,0,0,0-11.372,13,13.324,13.324,0,0,0,.2,2.3,13.134,13.134,0,0,0,12.924,10.822h26.338a13.165,13.165,0,0,1,1.531-.092v-.011a13.123,13.123,0,0,1,0,26.246V394.8H522.5v-.116a13.122,13.122,0,1,0,0,26.245h66.7a12.987,12.987,0,0,1,1.526-.095v-.011a13.123,13.123,0,1,1,0,26.246v-.014h-8.969l-2.183.014A13.239,13.239,0,0,0,568.8,457.889v0h0a13.839,13.839,0,0,0-.162,2.091,13.121,13.121,0,0,0,13.12,13.119v.058a13.125,13.125,0,1,1,0,26.25v-.095H453.991v-182.9Zm179.362,26.119a13.121,13.121,0,1,0,0,26.243v-.016a12.409,12.409,0,0,0,1.536-.087H670.04v.012a13.122,13.122,0,1,0,0-26.243v.014a14.065,14.065,0,0,0-1.522.085h-30.13v-.008ZM618.222,447.673a13.122,13.122,0,1,0,13.119,13.119,13.128,13.128,0,0,0-13.119-13.119Zm19.225-54.323a13.121,13.121,0,1,1-13.124,13.124,13.124,13.124,0,0,1,13.124-13.124Zm-55.691,79.836h-.541c.184.021.361.043.541.072Z" transform="translate(-338.616 -239.238)" fill="#fff" fill-rule="evenodd"/>
  <path id="Path_314" data-name="Path 314" d="M328.216,316.294H452.682a7.46,7.46,0,0,1,7.156,5.206l23.871,171.631a7.329,7.329,0,0,1-7.248,6.278H309.594a7.331,7.331,0,0,1-7.326-7.208l19.518-175.907-.579,5.2A7.333,7.333,0,0,1,328.216,316.294Z" transform="translate(-302.268 -239.238)" fill="#fff" fill-rule="evenodd"/>
  <path id="Path_315" data-name="Path 315" d="M402.99,214.962c13.773,0,26.1,8.889,34.9,23.259C445.35,250.41,450.3,266.65,451.364,284.7h-7.306c-1.039-16.635-5.586-31.531-12.407-42.666-7.469-12.2-17.609-19.745-28.66-19.745s-21.2,7.545-28.662,19.745c-6.822,11.135-11.37,26.031-12.408,42.666h-7.31c1.062-18.045,6.012-34.285,13.478-46.474C376.889,223.851,389.217,214.962,402.99,214.962Z" transform="translate(-314.807 -214.962)" fill="#fff"/>
  <path id="Path_316" data-name="Path 316" d="M357.969,325.935a3.66,3.66,0,1,1-3.661,3.658,3.658,3.658,0,0,1,3.661-3.658Zm89.9,0a3.66,3.66,0,1,1-3.665,3.658A3.663,3.663,0,0,1,447.865,325.935Z" transform="translate(-314.735 -241.547)" fill="#fff" fill-rule="evenodd"/>
</svg>
