<svg id="request" xmlns="http://www.w3.org/2000/svg" width="21.394" height="21.394" viewBox="0 0 21.394 21.394">
  <path id="Path_4568" data-name="Path 4568" d="M15.294,0H.627A.627.627,0,0,0,0,.627v20.14a.627.627,0,0,0,.627.627H15.294a.627.627,0,0,0,.627-.627V.627A.627.627,0,0,0,15.294,0ZM6.58,12.27l-1.9,1.9a.627.627,0,0,1-.886,0l-.9-.9a.627.627,0,0,1,.886-.886l.454.454,1.461-1.461a.627.627,0,0,1,.886.886Zm0-3.8-1.9,1.9a.627.627,0,0,1-.886,0l-.9-.9a.627.627,0,0,1,.886-.886l.454.454L5.694,7.581a.627.627,0,0,1,.886.886Zm0-3.8-1.9,1.9a.627.627,0,0,1-.886,0l-.9-.9a.627.627,0,0,1,.886-.886l.454.454L5.694,3.778a.627.627,0,0,1,.886.886Zm5.974,12.892H8.573a.627.627,0,1,1,0-1.254h3.98a.627.627,0,1,1,0,1.254Zm0-3.948H8.573a.627.627,0,1,1,0-1.254h3.98a.627.627,0,1,1,0,1.254Zm0-3.8H8.573a.627.627,0,0,1,0-1.254h3.98a.627.627,0,0,1,0,1.254Zm0-3.8H8.573a.627.627,0,0,1,0-1.254h3.98a.627.627,0,1,1,0,1.254Z" transform="translate(0 0)" fill="#fff"/>
  <path id="Path_4569" data-name="Path 4569" d="M414.432,2.127a2.127,2.127,0,0,0-4.255,0V3.966h4.255Z" transform="translate(-393.038 0)" fill="#fff"/>
  <path id="Path_4570" data-name="Path 4570" d="M410.214,389.253a.627.627,0,0,0,.02.475l1.5,3.269a.627.627,0,0,0,1.139,0l1.5-3.269a.627.627,0,0,0,.02-.475l-.385-1.064H410.6Z" transform="translate(-393.038 -371.969)" fill="#fff"/>
  <path id="Path_4571" data-name="Path 4571" d="M414.432,134.027v-9.121h-4.255v9.121a.627.627,0,0,0,.627.627h3A.627.627,0,0,0,414.432,134.027Z" transform="translate(-393.038 -119.687)" fill="#fff"/>
</svg>
