<svg xmlns="http://www.w3.org/2000/svg" width="154.702" height="30.567" viewBox="0 0 154.702 30.567">
  <g id="Group_3867" data-name="Group 3867" transform="translate(-114.607 -46.203)">
    <path id="Path_4544" data-name="Path 4544" d="M3.644-23.987h6.382v1.411H1.242v-.26L7.456-33.2H1.511v-1.419H9.84v.294ZM20.3-27.178q0,.252-.025.521H12.36a3.193,3.193,0,0,0,1.062,2.074,3.232,3.232,0,0,0,2.2.781,3.393,3.393,0,0,0,1.7-.424,3.132,3.132,0,0,0,1.184-1.18h1.545A4.913,4.913,0,0,1,18.3-23.172a4.614,4.614,0,0,1-2.674.8A4.729,4.729,0,0,1,13.212-23a4.5,4.5,0,0,1-1.7-1.738,5,5,0,0,1-.617-2.477,5.011,5.011,0,0,1,.617-2.473,4.493,4.493,0,0,1,1.7-1.742,4.729,4.729,0,0,1,2.414-.63,4.617,4.617,0,0,1,2.452.655,4.4,4.4,0,0,1,1.65,1.768A5.286,5.286,0,0,1,20.3-27.178Zm-4.677-3.5a3.225,3.225,0,0,0-2.133.726,3.2,3.2,0,0,0-1.1,1.944h6.449a3.219,3.219,0,0,0-1.1-1.952A3.207,3.207,0,0,0,15.626-30.679Zm11.512-1.385a3.317,3.317,0,0,1,2.607,1.1,4.1,4.1,0,0,1,.978,2.83v5.559H29.262v-5.214a3.274,3.274,0,0,0-.647-2.175,2.3,2.3,0,0,0-1.856-.764,2.588,2.588,0,0,0-2,.89,3.156,3.156,0,0,0-.806,2.2v5.063H22.486v-9.287h1.041l.285,1.453a3.626,3.626,0,0,1,1.394-1.218A4.224,4.224,0,0,1,27.138-32.064Zm13.88-3.115h1.461v12.6H41.345l-.193-1.318a4.524,4.524,0,0,1-1.579,1.121,4.987,4.987,0,0,1-2,.4,4.6,4.6,0,0,1-3.434-1.381,4.752,4.752,0,0,1-1.352-3.464A5.052,5.052,0,0,1,33.4-29.7a4.433,4.433,0,0,1,1.7-1.734,4.873,4.873,0,0,1,2.473-.63,4.981,4.981,0,0,1,1.906.361,4.629,4.629,0,0,1,1.537,1.016ZM35.253-24.763a3.293,3.293,0,0,0,2.439.978,3.292,3.292,0,0,0,2.443-.987,3.346,3.346,0,0,0,.974-2.448,3.342,3.342,0,0,0-.974-2.452,3.3,3.3,0,0,0-2.443-.982,3.293,3.293,0,0,0-2.439.978,3.346,3.346,0,0,0-.97,2.456A3.346,3.346,0,0,0,35.253-24.763Zm10.164,2.187v-12.6h1.469v12.6Zm13.082-4.6q0,.252-.025.521H50.557a3.193,3.193,0,0,0,1.062,2.074,3.232,3.232,0,0,0,2.2.781,3.393,3.393,0,0,0,1.7-.424,3.132,3.132,0,0,0,1.184-1.18h1.545A4.913,4.913,0,0,1,56.5-23.172a4.614,4.614,0,0,1-2.674.8A4.729,4.729,0,0,1,51.409-23a4.5,4.5,0,0,1-1.7-1.738,5,5,0,0,1-.617-2.477,5.011,5.011,0,0,1,.617-2.473,4.493,4.493,0,0,1,1.7-1.742,4.729,4.729,0,0,1,2.414-.63,4.617,4.617,0,0,1,2.452.655,4.4,4.4,0,0,1,1.65,1.768A5.286,5.286,0,0,1,58.5-27.178Zm-4.677-3.5a3.225,3.225,0,0,0-2.133.726,3.2,3.2,0,0,0-1.1,1.944h6.449a3.219,3.219,0,0,0-1.1-1.952A3.207,3.207,0,0,0,53.823-30.679ZM67.2-31.863h1.553L64.327-22.19A6.385,6.385,0,0,1,62.786-19.9a3.221,3.221,0,0,1-2.095.638h-.873v-1.327h.747a2.19,2.19,0,0,0,1.394-.378,4.644,4.644,0,0,0,1.033-1.553l.336-.689L59.2-31.863h1.6l3.3,7.028Zm14.862,9.287-4.24-5.517h-1.6v5.517h-1.5V-34.617h1.5V-29.5h1.6l3.863-5.114H83.6L79.19-28.823l4.8,6.247Zm3.569,0V-34.617h1.5v12.041Zm13.51-.609a6.509,6.509,0,0,1-3.241.81,6.485,6.485,0,0,1-3.237-.81,5.83,5.83,0,0,1-2.25-2.234A6.309,6.309,0,0,1,89.6-28.6a6.309,6.309,0,0,1,.81-3.178,5.83,5.83,0,0,1,2.25-2.234,6.485,6.485,0,0,1,3.237-.81,6.509,6.509,0,0,1,3.241.81,5.822,5.822,0,0,1,2.255,2.234,6.309,6.309,0,0,1,.81,3.178,6.309,6.309,0,0,1-.81,3.178A5.822,5.822,0,0,1,99.14-23.185ZM95.9-23.852a4.877,4.877,0,0,0,2.443-.617,4.414,4.414,0,0,0,1.7-1.7,4.847,4.847,0,0,0,.613-2.422,4.847,4.847,0,0,0-.613-2.422,4.414,4.414,0,0,0-1.7-1.7,4.877,4.877,0,0,0-2.443-.617,4.835,4.835,0,0,0-2.435.621,4.452,4.452,0,0,0-1.7,1.7,4.824,4.824,0,0,0-.613,2.418,4.824,4.824,0,0,0,.613,2.418,4.452,4.452,0,0,0,1.7,1.7A4.835,4.835,0,0,0,95.9-23.852Zm12.36,1.427a4.769,4.769,0,0,1-3.22-1.05,3.521,3.521,0,0,1-1.222-2.813h1.537a2.11,2.11,0,0,0,.806,1.742,3.239,3.239,0,0,0,2.082.642,3.177,3.177,0,0,0,1.931-.567,1.779,1.779,0,0,0,.773-1.507,1.567,1.567,0,0,0-.059-.432,2.225,2.225,0,0,0-.134-.361.96.96,0,0,0-.239-.3q-.164-.143-.294-.244a1.722,1.722,0,0,0-.382-.206l-.407-.168a4.231,4.231,0,0,0-.474-.147l-.479-.126q-.16-.042-.521-.126a12.717,12.717,0,0,1-2.2-.68,2.731,2.731,0,0,1-1.671-2.091,3.643,3.643,0,0,1-.042-.563,2.987,2.987,0,0,1,1.108-2.452,4.609,4.609,0,0,1,2.989-.9,4.265,4.265,0,0,1,2.943.961,3.316,3.316,0,0,1,1.079,2.607h-1.495a1.879,1.879,0,0,0-.718-1.553,2.87,2.87,0,0,0-1.843-.571,3.141,3.141,0,0,0-1.835.5,1.554,1.554,0,0,0-.718,1.339,1.413,1.413,0,0,0,.088.508,1.714,1.714,0,0,0,.214.4,1.349,1.349,0,0,0,.369.327,4.277,4.277,0,0,0,.445.252,4.166,4.166,0,0,0,.558.206q.357.109.592.168t.655.16a13.069,13.069,0,0,1,2.2.689,2.842,2.842,0,0,1,1.763,2.074,3.59,3.59,0,0,1,.067.705,3.3,3.3,0,0,1-.567,1.927,3.486,3.486,0,0,1-1.52,1.23A5.406,5.406,0,0,1,108.259-22.425Zm14.023-.151-4.24-5.517h-1.6v5.517h-1.5V-34.617h1.5V-29.5h1.6l3.863-5.114h1.923l-4.408,5.794,4.8,6.247Z" transform="translate(129.441 81.383)" fill="#fff"/>
    <path id="Path_4545" data-name="Path 4545" d="M7.463-14.11l-2.65-3.448h-1v3.448H2.871v-7.526H3.81v3.2h1l2.414-3.2h1.2L5.668-18.015l3,3.9Zm2.513-6.807v-1.05h.992v1.05Zm.037,6.807v-5.8h.918v5.8Zm5.8.126a3.009,3.009,0,0,1-2.2-.863,2.909,2.909,0,0,1-.879-2.165,3.057,3.057,0,0,1,.4-1.553,2.836,2.836,0,0,1,1.1-1.084,3.189,3.189,0,0,1,1.572-.391,3.189,3.189,0,0,1,1.572.391,2.849,2.849,0,0,1,1.107,1.086,3.045,3.045,0,0,1,.4,1.551,3.045,3.045,0,0,1-.4,1.551,2.849,2.849,0,0,1-1.107,1.086A3.189,3.189,0,0,1,15.812-13.984Zm-1.538-1.488a2.078,2.078,0,0,0,1.538.606,2.087,2.087,0,0,0,1.54-.606,2.087,2.087,0,0,0,.606-1.54,2.087,2.087,0,0,0-.606-1.54,2.087,2.087,0,0,0-1.54-.606,2.078,2.078,0,0,0-1.538.606,2.092,2.092,0,0,0-.6,1.54A2.092,2.092,0,0,0,14.274-15.472Zm8.265,1.488a2.518,2.518,0,0,1-1.653-.514,1.812,1.812,0,0,1-.661-1.391h.892a1,1,0,0,0,.433.782,1.737,1.737,0,0,0,1.021.278,1.81,1.81,0,0,0,.984-.241.747.747,0,0,0,.38-.661.785.785,0,0,0-.052-.294.536.536,0,0,0-.168-.223,1.8,1.8,0,0,0-.231-.157,1.339,1.339,0,0,0-.318-.118q-.2-.052-.346-.081t-.391-.071q-.194-.031-.3-.052t-.294-.063q-.186-.042-.3-.079l-.273-.094a1.09,1.09,0,0,1-.26-.126q-.1-.068-.218-.16a.8.8,0,0,1-.192-.2q-.071-.11-.139-.244a1.053,1.053,0,0,1-.1-.3,2.14,2.14,0,0,1-.029-.362,1.461,1.461,0,0,1,.6-1.215,2.528,2.528,0,0,1,1.585-.464,2.4,2.4,0,0,1,1.572.485,1.681,1.681,0,0,1,.617,1.309h-.866a.91.91,0,0,0-.378-.727,1.619,1.619,0,0,0-.966-.255,1.678,1.678,0,0,0-.934.228.7.7,0,0,0-.346.606.708.708,0,0,0,.047.265.473.473,0,0,0,.157.2,1.557,1.557,0,0,0,.22.142,1.375,1.375,0,0,0,.3.1q.194.047.331.073t.383.063a5.983,5.983,0,0,1,1.233.3,1.418,1.418,0,0,1,.934,1.27,1.9,1.9,0,0,1,.01.2,1.564,1.564,0,0,1-.63,1.3A2.651,2.651,0,0,1,22.539-13.984Zm7.935-.126-1.989-2.6h-.829v2.6h-.913v-7.877h.913v4.429H28.5l1.79-2.356H31.4l-2.115,2.781,2.33,3.023Zm14.646,0h-.96l-.981-5.878L40.586-14.3h-.252l-2.6-5.678L36.75-14.11h-.96l1.265-7.526h.913l2.482,5.521,2.5-5.521h.929Zm6.722-5.8h.729v5.8h-.756l-.1-.882a2.83,2.83,0,0,1-.994.743,3.074,3.074,0,0,1-1.283.265,3.029,3.029,0,0,1-1.532-.394,2.829,2.829,0,0,1-1.078-1.089,3.1,3.1,0,0,1-.391-1.546,2.946,2.946,0,0,1,.858-2.165,2.9,2.9,0,0,1,2.144-.863,3.1,3.1,0,0,1,1.291.268,2.812,2.812,0,0,1,1,.75ZM47.98-15.48a2.062,2.062,0,0,0,1.527.614,2.058,2.058,0,0,0,1.525-.611,2.091,2.091,0,0,0,.606-1.535,2.091,2.091,0,0,0-.606-1.535,2.058,2.058,0,0,0-1.525-.611,2.062,2.062,0,0,0-1.527.614,2.089,2.089,0,0,0-.609,1.532A2.089,2.089,0,0,0,47.98-15.48Zm9.761-4.561a2.073,2.073,0,0,1,1.63.687,2.562,2.562,0,0,1,.611,1.769v3.474h-.913v-3.259a2.046,2.046,0,0,0-.4-1.359,1.435,1.435,0,0,0-1.16-.478,1.617,1.617,0,0,0-1.249.556,1.973,1.973,0,0,0-.5,1.375v3.165h-.918v-5.8h.651l.178.908a2.266,2.266,0,0,1,.871-.761A2.64,2.64,0,0,1,57.741-20.04Zm9.367.126h.729v5.8h-.756l-.1-.882a2.83,2.83,0,0,1-.994.743,3.074,3.074,0,0,1-1.283.265,3.029,3.029,0,0,1-1.532-.394,2.829,2.829,0,0,1-1.078-1.089,3.1,3.1,0,0,1-.391-1.546,2.946,2.946,0,0,1,.858-2.165A2.9,2.9,0,0,1,64.7-20.04,3.1,3.1,0,0,1,66-19.773a2.812,2.812,0,0,1,1,.75ZM63.245-15.48a2.062,2.062,0,0,0,1.527.614,2.058,2.058,0,0,0,1.525-.611,2.091,2.091,0,0,0,.606-1.535,2.091,2.091,0,0,0-.606-1.535,2.058,2.058,0,0,0-1.525-.611,2.062,2.062,0,0,0-1.527.614,2.089,2.089,0,0,0-.609,1.532A2.089,2.089,0,0,0,63.245-15.48ZM74.9-19.914H75.5v4.991a3.082,3.082,0,0,1-.761,2.209,2.733,2.733,0,0,1-2.083.8,2.98,2.98,0,0,1-1.79-.522,2.476,2.476,0,0,1-.96-1.451h.913a1.559,1.559,0,0,0,.69.837,2.179,2.179,0,0,0,1.147.3,1.885,1.885,0,0,0,1.417-.551,2.07,2.07,0,0,0,.535-1.506v-.357a2.768,2.768,0,0,1-.939.638,3.015,3.015,0,0,1-1.176.228,2.85,2.85,0,0,1-1.448-.378,2.742,2.742,0,0,1-1.031-1.036,2.89,2.89,0,0,1-.375-1.456,2.9,2.9,0,0,1,.375-1.459,2.736,2.736,0,0,1,1.031-1.039A2.85,2.85,0,0,1,72.5-20.04a2.973,2.973,0,0,1,1.273.273,2.784,2.784,0,0,1,.984.756ZM71.151-15.74a1.97,1.97,0,0,0,1.446.569,1.953,1.953,0,0,0,1.438-.564,1.933,1.933,0,0,0,.567-1.43,1.942,1.942,0,0,0-.567-1.433,1.948,1.948,0,0,0-1.438-.567,1.97,1.97,0,0,0-1.446.569,1.93,1.93,0,0,0-.575,1.43A1.924,1.924,0,0,0,71.151-15.74ZM83.2-16.986q0,.157-.016.325H78.233a2,2,0,0,0,.664,1.3,2.02,2.02,0,0,0,1.378.488,2.121,2.121,0,0,0,1.065-.265,1.957,1.957,0,0,0,.74-.737h.966a3.07,3.07,0,0,1-1.1,1.4,2.884,2.884,0,0,1-1.671.5,2.956,2.956,0,0,1-1.509-.394A2.813,2.813,0,0,1,77.7-15.464a3.128,3.128,0,0,1-.386-1.548,3.132,3.132,0,0,1,.386-1.546,2.808,2.808,0,0,1,1.065-1.089,2.956,2.956,0,0,1,1.509-.394,2.886,2.886,0,0,1,1.532.409,2.75,2.75,0,0,1,1.031,1.1A3.3,3.3,0,0,1,83.2-16.986Zm-2.923-2.188a2.015,2.015,0,0,0-1.333.454,2,2,0,0,0-.687,1.215h4.03a2.012,2.012,0,0,0-.69-1.22A2,2,0,0,0,80.274-19.174ZM91.41-20.04a1.9,1.9,0,0,1,1.475.619,2.291,2.291,0,0,1,.562,1.6v3.71h-.908l-.005-3.427a1.942,1.942,0,0,0-.346-1.228,1.159,1.159,0,0,0-.966-.441,1.381,1.381,0,0,0-1.094.543,2.013,2.013,0,0,0-.454,1.336v3.217h-.892v-3.427a1.942,1.942,0,0,0-.346-1.228,1.17,1.17,0,0,0-.976-.441,1.381,1.381,0,0,0-1.094.543,2.013,2.013,0,0,0-.454,1.336v3.217h-.918v-5.8h.661l.147.8a2.356,2.356,0,0,1,.827-.68,2.3,2.3,0,0,1,1.036-.244,1.951,1.951,0,0,1,1.071.294,1.919,1.919,0,0,1,.708.808,2.359,2.359,0,0,1,.848-.808A2.248,2.248,0,0,1,91.41-20.04Zm9.645,3.054q0,.157-.016.325H96.091a2,2,0,0,0,.664,1.3,2.02,2.02,0,0,0,1.378.488,2.121,2.121,0,0,0,1.065-.265,1.957,1.957,0,0,0,.74-.737h.966a3.07,3.07,0,0,1-1.1,1.4,2.884,2.884,0,0,1-1.671.5,2.956,2.956,0,0,1-1.509-.394,2.813,2.813,0,0,1-1.065-1.086,3.128,3.128,0,0,1-.386-1.548,3.132,3.132,0,0,1,.386-1.546,2.808,2.808,0,0,1,1.065-1.089,2.956,2.956,0,0,1,1.509-.394,2.886,2.886,0,0,1,1.532.409,2.75,2.75,0,0,1,1.031,1.1A3.3,3.3,0,0,1,101.056-16.986Zm-2.923-2.188a2.015,2.015,0,0,0-1.333.454,2,2,0,0,0-.687,1.215h4.03a2.012,2.012,0,0,0-.69-1.22A2,2,0,0,0,98.132-19.174Zm7.625-.866a2.073,2.073,0,0,1,1.63.687A2.562,2.562,0,0,1,108-17.584v3.474h-.913v-3.259a2.046,2.046,0,0,0-.4-1.359,1.435,1.435,0,0,0-1.16-.478,1.617,1.617,0,0,0-1.249.556,1.973,1.973,0,0,0-.5,1.375v3.165h-.918v-5.8h.651l.178.908a2.266,2.266,0,0,1,.871-.761A2.64,2.64,0,0,1,105.757-20.04Zm6.775,5.085h.63v.845h-.75a1.985,1.985,0,0,1-1.477-.543,2.022,2.022,0,0,1-.538-1.488V-19.09h-1.023v-.163l1.795-1.889h.142v1.228h1.821v.824h-1.821v2.923a1.212,1.212,0,0,0,.315.9A1.235,1.235,0,0,0,112.532-14.955Zm7.871.939a2.981,2.981,0,0,1-2.013-.656,2.2,2.2,0,0,1-.764-1.758h.96a1.319,1.319,0,0,0,.5,1.089,2.025,2.025,0,0,0,1.3.4,1.986,1.986,0,0,0,1.207-.354,1.112,1.112,0,0,0,.483-.942.979.979,0,0,0-.037-.27,1.391,1.391,0,0,0-.084-.226.6.6,0,0,0-.15-.186q-.1-.089-.184-.152a1.076,1.076,0,0,0-.239-.129l-.255-.1a2.644,2.644,0,0,0-.3-.092l-.3-.079q-.1-.026-.325-.079a7.948,7.948,0,0,1-1.375-.425,1.707,1.707,0,0,1-1.044-1.307,2.276,2.276,0,0,1-.026-.352,1.867,1.867,0,0,1,.693-1.532,2.881,2.881,0,0,1,1.868-.562,2.665,2.665,0,0,1,1.839.6,2.072,2.072,0,0,1,.674,1.63h-.934a1.174,1.174,0,0,0-.449-.971,1.794,1.794,0,0,0-1.152-.357,1.963,1.963,0,0,0-1.147.312.971.971,0,0,0-.449.837.883.883,0,0,0,.055.318,1.071,1.071,0,0,0,.134.252.843.843,0,0,0,.231.2,2.672,2.672,0,0,0,.278.157,2.6,2.6,0,0,0,.349.129q.223.068.37.1l.409.1a8.168,8.168,0,0,1,1.375.43,1.776,1.776,0,0,1,1.1,1.3,2.244,2.244,0,0,1,.042.441,2.063,2.063,0,0,1-.354,1.2,2.179,2.179,0,0,1-.95.769A3.379,3.379,0,0,1,120.4-14.016Zm8.685-5.9h.971l-2.766,6.046a3.991,3.991,0,0,1-.963,1.433,2.013,2.013,0,0,1-1.309.4h-.546v-.829h.467a1.369,1.369,0,0,0,.871-.236,2.9,2.9,0,0,0,.646-.971l.21-.43-2.582-5.411h1l2.062,4.393Zm4.145,5.93a2.518,2.518,0,0,1-1.653-.514,1.812,1.812,0,0,1-.661-1.391h.892a1,1,0,0,0,.433.782,1.737,1.737,0,0,0,1.021.278,1.81,1.81,0,0,0,.984-.241.747.747,0,0,0,.38-.661.785.785,0,0,0-.052-.294.536.536,0,0,0-.168-.223,1.8,1.8,0,0,0-.231-.157,1.339,1.339,0,0,0-.318-.118q-.2-.052-.346-.081t-.391-.071q-.194-.031-.3-.052t-.294-.063q-.186-.042-.3-.079l-.273-.094a1.09,1.09,0,0,1-.26-.126q-.1-.068-.218-.16a.8.8,0,0,1-.192-.2q-.071-.11-.139-.244a1.054,1.054,0,0,1-.1-.3,2.138,2.138,0,0,1-.029-.362,1.461,1.461,0,0,1,.6-1.215,2.528,2.528,0,0,1,1.585-.464,2.4,2.4,0,0,1,1.572.485,1.681,1.681,0,0,1,.617,1.309h-.866a.91.91,0,0,0-.378-.727,1.619,1.619,0,0,0-.966-.255,1.678,1.678,0,0,0-.934.228.7.7,0,0,0-.346.606.708.708,0,0,0,.047.265.473.473,0,0,0,.157.2,1.557,1.557,0,0,0,.22.142,1.375,1.375,0,0,0,.3.1q.194.047.331.073t.383.063a5.983,5.983,0,0,1,1.233.3,1.418,1.418,0,0,1,.934,1.27,1.9,1.9,0,0,1,.01.2,1.564,1.564,0,0,1-.63,1.3A2.651,2.651,0,0,1,133.234-13.984Zm6.46-.971h.63v.845h-.75a1.985,1.985,0,0,1-1.477-.543,2.022,2.022,0,0,1-.538-1.488V-19.09h-1.023v-.163l1.795-1.889h.142v1.228h1.821v.824h-1.821v2.923a1.212,1.212,0,0,0,.315.9A1.235,1.235,0,0,0,139.694-14.955Zm7.63-2.031q0,.157-.016.325h-4.949a2,2,0,0,0,.664,1.3,2.02,2.02,0,0,0,1.378.488,2.121,2.121,0,0,0,1.065-.265,1.957,1.957,0,0,0,.74-.737h.966a3.07,3.07,0,0,1-1.1,1.4,2.884,2.884,0,0,1-1.671.5,2.956,2.956,0,0,1-1.509-.394,2.813,2.813,0,0,1-1.065-1.086,3.128,3.128,0,0,1-.386-1.548,3.132,3.132,0,0,1,.386-1.546,2.808,2.808,0,0,1,1.065-1.089,2.956,2.956,0,0,1,1.509-.394,2.886,2.886,0,0,1,1.532.409,2.75,2.75,0,0,1,1.031,1.1A3.3,3.3,0,0,1,147.324-16.986ZM144.4-19.174a2.015,2.015,0,0,0-1.333.454,2,2,0,0,0-.687,1.215h4.03a2.012,2.012,0,0,0-.69-1.22A2,2,0,0,0,144.4-19.174Zm11.136-.866a1.9,1.9,0,0,1,1.475.619,2.291,2.291,0,0,1,.562,1.6v3.71h-.908l-.005-3.427a1.942,1.942,0,0,0-.346-1.228,1.159,1.159,0,0,0-.966-.441,1.381,1.381,0,0,0-1.094.543,2.013,2.013,0,0,0-.454,1.336v3.217h-.892v-3.427a1.942,1.942,0,0,0-.346-1.228,1.17,1.17,0,0,0-.976-.441,1.381,1.381,0,0,0-1.094.543,2.013,2.013,0,0,0-.454,1.336v3.217h-.918v-5.8h.661l.147.8a2.355,2.355,0,0,1,.827-.68,2.3,2.3,0,0,1,1.036-.244,1.951,1.951,0,0,1,1.071.294,1.919,1.919,0,0,1,.708.808,2.359,2.359,0,0,1,.848-.808A2.248,2.248,0,0,1,155.536-20.04Z" transform="translate(111.736 88.682)" fill="#fff" opacity="0.75"/>
  </g>
</svg>
