<svg id="add" xmlns="http://www.w3.org/2000/svg" width="20.971" height="20.971" viewBox="0 0 20.971 20.971">
  <path id="Path_4577" data-name="Path 4577" d="M11.209,1.748h-.961a2.408,2.408,0,0,0-4.631,0H4.655A.66.66,0,0,0,4,2.4V3.714A1.536,1.536,0,0,0,5.529,5.243h4.806a1.536,1.536,0,0,0,1.529-1.529V2.4A.66.66,0,0,0,11.209,1.748Z" transform="translate(-0.505)" fill="#fff"/>
  <path id="Path_4578" data-name="Path 4578" d="M12.451,3h-.218V4.092a2.4,2.4,0,0,1-2.4,2.4H5.024a2.4,2.4,0,0,1-2.4-2.4V3H2.4A2.4,2.4,0,0,0,0,5.4V16.325a2.4,2.4,0,0,0,2.4,2.4H8.161a7.635,7.635,0,0,1-.725-3.058H3.277a.655.655,0,0,1,0-1.311H7.506A8,8,0,0,1,7.89,12.83H3.277a.655.655,0,0,1,0-1.311H8.519A7.6,7.6,0,0,1,9.734,9.99H3.277a.655.655,0,0,1,0-1.311h8.248a7.534,7.534,0,0,1,3.329-.865V5.4A2.4,2.4,0,0,0,12.451,3Z" transform="translate(0 -0.379)" fill="#fff"/>
  <path id="Path_4579" data-name="Path 4579" d="M16.4,10.5a5.9,5.9,0,1,0,5.9,5.9A5.9,5.9,0,0,0,16.4,10.5Zm2.4,6.772H17.272V18.8a.874.874,0,0,1-1.748,0V17.272H14a.874.874,0,0,1,0-1.748h1.529V14a.874.874,0,0,1,1.748,0v1.529H18.8a.874.874,0,0,1,0,1.748Z" transform="translate(-1.325 -1.325)" fill="#fff"/>
</svg>
