<svg id="dashboard" xmlns="http://www.w3.org/2000/svg" width="27.102" height="27.102" viewBox="0 0 27.102 27.102">
  <path id="Path_4553" data-name="Path 4553" d="M10.445,0H1.976A1.978,1.978,0,0,0,0,1.976V7.058A1.978,1.978,0,0,0,1.976,9.034h8.469a1.978,1.978,0,0,0,1.976-1.976V1.976A1.978,1.978,0,0,0,10.445,0Zm0,0" fill="#fff"/>
  <path id="Path_4554" data-name="Path 4554" d="M10.445,213.332H1.976A1.978,1.978,0,0,0,0,215.308v11.857a1.978,1.978,0,0,0,1.976,1.976h8.469a1.978,1.978,0,0,0,1.976-1.976V215.308A1.978,1.978,0,0,0,10.445,213.332Zm0,0" transform="translate(0 -202.04)" fill="#fff"/>
  <path id="Path_4555" data-name="Path 4555" d="M287.778,341.332h-8.469a1.978,1.978,0,0,0-1.976,1.976v5.082a1.978,1.978,0,0,0,1.976,1.976h8.469a1.978,1.978,0,0,0,1.976-1.976v-5.082A1.978,1.978,0,0,0,287.778,341.332Zm0,0" transform="translate(-262.652 -323.264)" fill="#fff"/>
  <path id="Path_4556" data-name="Path 4556" d="M287.778,0h-8.469a1.978,1.978,0,0,0-1.976,1.976V13.833a1.978,1.978,0,0,0,1.976,1.976h8.469a1.978,1.978,0,0,0,1.976-1.976V1.976A1.978,1.978,0,0,0,287.778,0Zm0,0" transform="translate(-262.652)" fill="#fff"/>
</svg>
