<svg xmlns="http://www.w3.org/2000/svg" width="19.132" height="18.908" viewBox="0 0 19.132 18.908">
  <g id="box" transform="translate(0 -2.992)">
    <g id="Group_3925" data-name="Group 3925" transform="translate(0 2.992)">
      <g id="Group_3924" data-name="Group 3924">
        <path id="Path_4565" data-name="Path 4565" d="M11.957,6.328v0l3.58,1.6,3.594-1.348L9.566,2.992,0,6.579l9.566,3.587,3.58-1.343L9.566,7.348v0Z" transform="translate(0 -2.992)" fill="#fff"/>
      </g>
    </g>
    <g id="Group_3927" data-name="Group 3927" transform="translate(0 7.775)">
      <g id="Group_3926" data-name="Group 3926" transform="translate(0 0)">
        <path id="Path_4566" data-name="Path 4566" d="M0,130.992v10.762l8.968,3.364V134.356Zm4.783,10.8-2.391-.9V139.62l2.391.9Z" transform="translate(0 -130.992)" fill="#fff"/>
      </g>
    </g>
    <g id="Group_3929" data-name="Group 3929" transform="translate(10.164 7.775)">
      <g id="Group_3928" data-name="Group 3928" transform="translate(0 0)">
        <path id="Path_4567" data-name="Path 4567" d="M277.381,132.337v3l-2.391.9v-3L272,134.356v10.762l8.968-3.364V130.992Z" transform="translate(-272 -130.992)" fill="#fff"/>
      </g>
    </g>
  </g>
</svg>
