<svg id="shipping" xmlns="http://www.w3.org/2000/svg" width="27.896" height="27.896" viewBox="0 0 27.896 27.896">
  <path id="Path_4572" data-name="Path 4572" d="M12.786,13.872A.874.874,0,0,0,11.914,13H7.555v3.487a1.162,1.162,0,0,1-2.325,0V13H.872A.874.874,0,0,0,0,13.872V24.914a.874.874,0,0,0,.872.872H11.914a.874.874,0,0,0,.872-.872Z" transform="translate(0 2.111)" fill="#fff"/>
  <path id="Path_4573" data-name="Path 4573" d="M25.786,13.872A.874.874,0,0,0,24.914,13H20.555v3.487a1.162,1.162,0,1,1-2.325,0V13H13.872a.874.874,0,0,0-.872.872V24.914a.874.874,0,0,0,.872.872H24.914a.874.874,0,0,0,.872-.872Z" transform="translate(2.111 2.111)" fill="#fff"/>
  <path id="Path_4574" data-name="Path 4574" d="M19.286.872A.875.875,0,0,0,18.414,0H14.055V3.487a1.162,1.162,0,1,1-2.325,0V0H7.372A.874.874,0,0,0,6.5.872V11.914a.874.874,0,0,0,.872.872H18.414a.874.874,0,0,0,.872-.872Z" transform="translate(1.055)" fill="#fff"/>
</svg>
