<svg xmlns="http://www.w3.org/2000/svg" width="24.861" height="28.478" viewBox="0 0 24.861 28.478">
  <g id="product" transform="translate(0)">
    <path id="Path_4575" data-name="Path 4575" d="M122.079,14.268h9.477a.789.789,0,0,0,.79-.79V3.949a.789.789,0,0,0-.79-.79h-2.369v-.79a2.369,2.369,0,1,0-4.738,0v.79h-2.369a.789.789,0,0,0-.79.79v9.529A.789.789,0,0,0,122.079,14.268Zm3.949-11.9a.79.79,0,0,1,1.579,0v.79h-1.579Zm0,0" transform="translate(-114.224)" fill="#fff"/>
    <path id="Path_4576" data-name="Path 4576" d="M24.74,241.38a.845.845,0,0,0-.714-.381,3.987,3.987,0,0,0-3.5,2l-2.559,4.623a2.52,2.52,0,0,1-2.218,1.269H10.083a.791.791,0,1,1,0-1.579h5.666a.841.841,0,0,0,.74-.423l.956-1.728a.657.657,0,0,0-.022-.676.738.738,0,0,0-.623-.332H8.127a4.266,4.266,0,0,0-2.949,1.157l-4.934,4.67a.76.76,0,0,0,0,1.117l4.172,3.933a.867.867,0,0,0,1.18,0l3.164-2.98h6.989a5.877,5.877,0,0,0,5.174-2.962l3.842-6.937a.751.751,0,0,0-.024-.776Zm0,0" transform="translate(0 -226.79)" fill="#fff"/>
  </g>
</svg>
