<svg xmlns="http://www.w3.org/2000/svg" width="28.539" height="27.023" viewBox="0 0 28.539 27.023">
  <g id="Layer_2" data-name="Layer 2" transform="translate(-1 -1.804)">
    <path id="Path_4564" data-name="Path 4564" d="M27.837,11.351A3.729,3.729,0,0,1,24.9,6.309a1.75,1.75,0,0,0-.523-1.969,14.032,14.032,0,0,0-4.186-2.426,1.76,1.76,0,0,0-1.988.552,3.72,3.72,0,0,1-5.86,0,1.76,1.76,0,0,0-1.988-.552A14.1,14.1,0,0,0,6.451,4.1,1.769,1.769,0,0,0,5.9,6.129a3.71,3.71,0,0,1-3.092,5.1,1.76,1.76,0,0,0-1.541,1.417A13.451,13.451,0,0,0,1,15.309a13.623,13.623,0,0,0,.181,2.236,1.76,1.76,0,0,0,1.551,1.475,3.71,3.71,0,0,1,3.025,5.242,1.731,1.731,0,0,0,.485,2.074,14.136,14.136,0,0,0,4.148,2.388,1.9,1.9,0,0,0,.6.1,1.75,1.75,0,0,0,1.427-.742,3.682,3.682,0,0,1,3.044-1.6,3.729,3.729,0,0,1,2.987,1.5,1.75,1.75,0,0,0,2.055.58A14.27,14.27,0,0,0,24.307,26.3a1.76,1.76,0,0,0,.514-2.007A3.71,3.71,0,0,1,27.8,19.162a1.76,1.76,0,0,0,1.494-1.446,13.794,13.794,0,0,0,.247-2.407,13.659,13.659,0,0,0-.238-2.543,1.741,1.741,0,0,0-1.464-1.415Zm-7.81,3.957a4.757,4.757,0,1,1-4.757-4.757,4.757,4.757,0,0,1,4.757,4.757Z" fill="#fff"/>
  </g>
</svg>
